HIERARCHY
ROOT Hips
{
	OFFSET 0.000000 0.000000 0.000000
	CHANNELS 6 Xposition Yposition Zposition Zrotation Yrotation Xrotation 
	JOINT LHipJoint
	{
		OFFSET 0.000000 0.000000 0.000000
		CHANNELS 3 Zrotation Yrotation Xrotation
		JOINT LeftUpLeg
		{
			OFFSET 1.363060 -1.794630 0.839290
			CHANNELS 3 Zrotation Yrotation Xrotation
			JOINT LeftLeg
			{
				OFFSET 2.448110 -6.726130 0.000000
				CHANNELS 3 Zrotation Yrotation Xrotation
				JOINT LeftFoot
				{
					OFFSET 2.562200 -7.039590 0.000000
					CHANNELS 3 Zrotation Yrotation Xrotation
					JOINT LeftToeBase
					{
						OFFSET 0.157640 -0.433110 2.322550
						CHANNELS 3 Zrotation Yrotation Xrotation
						End Site
						{
							OFFSET 0.000000 0.000000 0.000000
						}
					}
				}
			}
		}
	}
	JOINT RHipJoint
	{
		OFFSET 0.000000 0.000000 0.000000
		CHANNELS 3 Zrotation Yrotation Xrotation
		JOINT RightUpLeg
		{
			OFFSET -1.305520 -1.794630 0.839290
			CHANNELS 3 Zrotation Yrotation Xrotation
			JOINT RightLeg
			{
				OFFSET -2.542530 -6.985550 0.000000
				CHANNELS 3 Zrotation Yrotation Xrotation
				JOINT RightFoot
				{
					OFFSET -2.568260 -7.056230 0.000000
					CHANNELS 3 Zrotation Yrotation Xrotation
					JOINT RightToeBase
					{
						OFFSET -0.164730 -0.452590 2.363150
						CHANNELS 3 Zrotation Yrotation Xrotation
						End Site
						{
							OFFSET 0.000000 0.000000 0.000000
						}
					}
				}
			}
		}
	}
	JOINT LowerBack
	{
		OFFSET 0.000000 0.000000 0.000000
		CHANNELS 3 Zrotation Yrotation Xrotation
		JOINT Spine
		{
			OFFSET 0.028270 2.035590 -0.193380
			CHANNELS 3 Zrotation Yrotation Xrotation
			JOINT Spine1
			{
				OFFSET 0.056720 2.048850 -0.042750
				CHANNELS 3 Zrotation Yrotation Xrotation
				JOINT Neck
				{
					OFFSET 0.000000 0.000000 0.000000
					CHANNELS 3 Zrotation Yrotation Xrotation
					JOINT Neck1
					{
						OFFSET -0.054170 1.746240 0.172020
						CHANNELS 3 Zrotation Yrotation Xrotation
						JOINT Head
						{
							OFFSET 0.104070 1.761360 -0.123970
							CHANNELS 3 Zrotation Yrotation Xrotation
							End Site
							{
								OFFSET 0.000000 0.000000 0.000000
							}
						}
					}
				}
				JOINT LeftShoulder
				{
					OFFSET 0.000000 0.000000 0.000000
					CHANNELS 3 Zrotation Yrotation Xrotation
					JOINT LeftArm
					{
						OFFSET 3.362410 1.200890 -0.311210
						CHANNELS 3 Zrotation Yrotation Xrotation
						JOINT LeftForeArm
						{
							OFFSET 4.983000 -0.000000 -0.000000
							CHANNELS 3 Zrotation Yrotation Xrotation
							JOINT LeftHand
							{
								OFFSET 3.483560 -0.000000 -0.000000
								CHANNELS 3 Zrotation Yrotation Xrotation
								JOINT LeftFingerBase
								{
									OFFSET 0.000000 0.000000 0.000000
									CHANNELS 3 Zrotation Yrotation Xrotation
									JOINT LeftHandIndex1
									{
										OFFSET 0.715260 -0.000000 -0.000000
										CHANNELS 3 Zrotation Yrotation Xrotation
										End Site
										{
											OFFSET 0.000000 0.000000 0.000000
										}
									}
								}
								JOINT LThumb
								{
									OFFSET 0.000000 0.000000 0.000000
									CHANNELS 3 Zrotation Yrotation Xrotation
									End Site
									{
										OFFSET 0.000000 0.000000 0.000000
									}
								}
							}
						}
					}
				}
				JOINT RightShoulder
				{
					OFFSET 0.000000 0.000000 0.000000
					CHANNELS 3 Zrotation Yrotation Xrotation
					JOINT RightArm
					{
						OFFSET -3.136600 1.374050 -0.404650
						CHANNELS 3 Zrotation Yrotation Xrotation
						JOINT RightForeArm
						{
							OFFSET -5.241900 -0.000000 -0.000000
							CHANNELS 3 Zrotation Yrotation Xrotation
							JOINT RightHand
							{
								OFFSET -3.444170 -0.000000 -0.000000
								CHANNELS 3 Zrotation Yrotation Xrotation
								JOINT RightFingerBase
								{
									OFFSET 0.000000 0.000000 0.000000
									CHANNELS 3 Zrotation Yrotation Xrotation
									JOINT RightHandIndex1
									{
										OFFSET -0.622530 -0.000000 -0.000000
										CHANNELS 3 Zrotation Yrotation Xrotation
										End Site
										{
											OFFSET 0.000000 0.000000 0.000000
										}
									}
								}
								JOINT RThumb
								{
									OFFSET 0.000000 0.000000 0.000000
									CHANNELS 3 Zrotation Yrotation Xrotation
									End Site
									{
										OFFSET 0.000000 0.000000 0.000000
									}
								}
							}
						}
					}
				}
			}
		}
	}
}
MOTION
Frames: 12
Frame Time: 0.008333
11.745135 15.031532 -26.475676 -3.977640 -12.044449 22.894701 -3.329256 -12.771575 -14.896756 -15.908730 1.227517 -14.365710 15.260878 22.831550 59.411171 -5.467083 -17.858777 -4.745677 9.095097 -4.783458 -35.065656 -2.500714 8.634672 -13.400015 9.379452 -9.408290 -42.628435 -16.837820 -21.441982 83.799620 -2.661249 -11.423952 1.841071 -41.638152 25.862105 -41.260173 6.794803 4.666129 32.236925 0.185259 1.027147 -8.099434 2.824022 -1.047448 6.840116 -6.992446 0.719522 -19.503032 2.325204 1.833337 3.515896 5.456701 4.233401 -1.416125 16.319079 -7.270031 9.859989 -44.256828 -75.332959 -50.985813 10.288727 -68.562662 37.821147 -19.576043 -40.737214 13.813597 0.000001 -0.000001 -0.000001 0.000000 -0.000000 0.000000 0.000000 0.000000 0.000000 -15.787117 -13.377132 1.759600 78.787994 -2.708525 0.146968 13.912877 27.163307 18.349157 -12.428935 26.205782 0.640303 0.000002 0.000001 -0.000002 0.000000 0.000000 0.000000 -0.000000 -0.000000 0.000000 
11.733123 15.062913 -26.208859 -4.671752 -11.462036 22.793080 -3.505175 -12.744125 -14.853161 -15.410228 2.299810 -12.074611 13.523649 21.659600 57.122515 -4.033790 -17.180216 -5.598178 6.910915 -2.518872 -30.904932 -2.275721 8.452416 -13.448930 10.195540 -8.898408 -44.843650 -17.346323 -21.879972 82.434597 -3.528085 -10.258689 0.512226 -40.361430 26.366456 -38.926584 7.270587 4.827041 32.404219 0.215347 1.094433 -8.149063 4.172777 -1.637249 5.193196 -7.908911 0.919887 -18.099805 2.151670 2.128308 3.343632 5.019534 4.525544 -2.226746 15.274129 -8.977038 8.222570 -39.474344 -74.111670 -56.248531 9.654473 -69.104549 39.601952 -17.703280 -41.472524 13.281408 0.000001 -0.000001 -0.000001 0.000000 -0.000000 0.000000 0.000000 -0.000000 0.000000 -16.814040 -12.621654 2.066794 78.901182 -5.087069 1.159836 13.526454 27.727010 18.027983 -11.418528 25.372819 0.856811 0.000002 0.000001 -0.000002 0.000000 0.000000 0.000000 -0.000000 0.000000 0.000000 
11.715901 15.110961 -25.927177 -5.317539 -10.836881 22.765683 -3.708857 -12.941339 -14.872811 -14.485853 3.180922 -9.470648 11.580743 21.011156 54.379899 -4.134610 -16.550802 -5.672880 6.855586 -2.650191 -30.352378 -2.045198 8.270096 -13.412062 10.663359 -8.078174 -46.663234 -16.872931 -22.964083 80.396031 -3.539146 -8.605593 -0.784761 -39.361756 26.897375 -36.876552 7.578052 5.101647 32.631430 0.217496 1.524267 -8.259540 4.506173 -1.552309 3.744657 -7.767945 1.194897 -16.906915 2.064719 2.260538 3.069496 4.276477 4.824018 -2.367551 15.467711 -11.194672 6.660958 -35.466360 -73.105674 -60.117934 9.804257 -69.665241 41.676506 -13.573587 -43.014013 12.001962 0.000001 -0.000001 -0.000001 -0.000000 0.000000 -0.000000 0.000000 0.000000 0.000000 -16.499323 -12.883892 2.223388 79.136671 -7.363051 2.279369 12.777551 28.729280 18.217605 -11.990560 25.558924 0.722991 0.000002 0.000001 -0.000002 0.000000 0.000000 -0.000000 0.000000 0.000000 0.000000 
11.698964 15.143093 -25.628679 -5.964791 -10.182347 22.808526 -3.845221 -13.077174 -14.823135 -13.434791 2.157978 -6.257364 9.199992 21.836717 51.272475 -4.488215 -15.455475 -5.948713 6.912196 -3.244704 -29.365569 -2.010671 7.877403 -13.165189 11.118807 -6.816908 -48.464212 -15.694498 -24.239187 77.990050 -3.467980 -7.560022 -1.677811 -37.524332 26.966892 -34.292744 7.941860 5.420011 32.494425 0.172426 2.218268 -8.299307 2.804106 -0.924159 3.089520 -5.724587 1.430606 -16.299401 1.886587 2.024767 2.840918 2.966100 5.102987 -1.412590 17.830537 -14.109454 4.229751 -31.682959 -71.982079 -64.083186 8.608656 -70.123729 42.956106 -11.533878 -43.369694 11.237070 0.000001 -0.000001 -0.000001 -0.000000 0.000000 0.000000 -0.000000 0.000000 -0.000000 -13.977803 -14.386778 2.453271 79.226541 -9.142208 3.328773 12.145200 29.650597 18.561894 -12.617666 25.986400 0.590944 0.000002 0.000001 -0.000002 0.000000 0.000000 0.000000 -0.000000 0.000000 0.000000 
11.686021 15.167718 -25.321471 -6.781831 -9.620101 22.854393 -4.041808 -12.993080 -14.717735 -12.544288 3.747697 -3.988358 7.576750 20.032002 48.632112 -4.436282 -14.962059 -6.004690 7.223588 -4.714111 -27.878682 -1.930110 7.484246 -12.831694 11.299617 -5.149181 -49.967926 -12.273402 -25.335389 74.930374 -3.543524 -8.564260 -2.402449 -34.947040 26.064894 -32.059457 8.324725 5.569687 32.236494 0.231608 2.386834 -8.318754 2.081854 -0.798020 2.463314 -4.552836 1.761075 -15.712731 1.825859 2.000596 2.565860 3.083377 5.472548 -0.294362 18.947528 -15.973656 2.247191 -28.045796 -70.728654 -67.862772 7.034475 -70.388771 43.211397 -11.081529 -42.607796 10.839371 0.000001 -0.000001 -0.000001 0.000000 0.000000 0.000000 -0.000000 0.000000 -0.000000 -12.496137 -14.773145 2.616144 79.222804 -10.735865 4.240099 11.620927 30.510653 19.123294 -13.492909 26.926171 0.387306 0.000002 0.000001 -0.000002 -0.000000 0.000000 -0.000000 -0.000000 0.000000 -0.000000 
11.660796 15.204354 -25.004354 -7.230956 -9.115791 22.787043 -3.988033 -12.970807 -14.843006 -12.296776 6.700495 -1.771216 6.550771 17.033317 45.669153 -5.093585 -14.900577 -5.018085 6.473866 -3.744438 -26.494551 -1.872972 7.089282 -12.493511 11.319370 -3.912557 -51.320697 -9.469563 -26.234989 71.802532 -4.129566 -7.940964 -2.819782 -30.953406 24.842066 -27.786820 8.482756 5.692829 32.112292 0.377558 2.023644 -8.397885 2.779057 -1.357266 1.324290 -4.680721 2.044765 -14.819335 1.726690 2.238498 2.290529 3.034044 6.158542 0.701248 18.507190 -16.777489 1.597632 -25.187619 -69.522415 -70.416804 6.502961 -70.989365 44.028632 -8.139317 -42.648655 9.607890 0.000001 -0.000001 -0.000001 0.000000 0.000000 0.000000 0.000000 0.000000 -0.000000 -12.591490 -14.051091 2.641259 79.112534 -12.398840 5.336972 10.990563 31.335329 19.455484 -13.926625 27.449889 0.294973 0.000002 0.000001 -0.000002 -0.000000 0.000000 -0.000000 0.000000 -0.000000 0.000000 
11.639505 15.274775 -24.671021 -7.428072 -8.788248 22.845524 -3.996995 -13.216731 -15.185798 -12.107045 6.806547 1.898250 4.727118 16.349229 41.155703 -5.616457 -13.905762 -3.467128 4.591755 -1.094000 -23.088152 -1.706207 6.806771 -12.303458 11.110914 -3.195492 -52.467150 -7.601882 -27.228199 68.465727 -4.368921 -5.000310 -2.969626 -26.487972 23.516931 -22.532071 8.723464 5.873660 32.172092 0.441688 1.737808 -8.640693 3.340694 -1.753618 0.062055 -4.884054 2.211671 -14.082467 1.343847 2.441829 2.027890 2.242159 6.725319 0.487130 18.044927 -17.544046 1.651690 -22.808769 -68.638883 -72.903849 4.552663 -72.298583 45.089291 -7.045488 -42.427669 9.103022 0.000001 -0.000001 -0.000001 0.000000 -0.000000 -0.000000 -0.000000 0.000000 0.000000 -12.509482 -13.850409 2.595044 78.645273 -13.717934 6.356545 10.388185 32.039491 19.130327 -12.389186 26.510275 0.661360 0.000002 0.000001 -0.000002 0.000000 0.000000 -0.000000 -0.000000 0.000000 0.000000 
11.618649 15.321471 -24.335285 -7.719181 -8.599375 22.869408 -3.750740 -13.437576 -15.587883 -12.153145 7.725864 5.504183 3.220533 14.927249 36.625576 -6.967732 -12.820917 -1.655806 4.049520 -0.219758 -22.291373 -1.908870 6.647384 -11.968907 10.621363 -1.910495 -53.332925 -4.752478 -28.622205 64.486034 -2.601964 -3.175543 -2.988628 -23.989152 21.767146 -20.882680 8.892943 6.003395 32.008569 0.500541 1.640541 -8.759230 3.813524 -2.014826 -0.961571 -5.042234 2.508162 -13.447793 0.957922 2.659279 1.838804 2.884986 6.952288 1.015870 17.858471 -18.436595 1.445835 -20.588928 -67.556081 -75.225557 2.541140 -73.409241 44.911248 -8.619362 -41.443497 9.512215 0.000001 -0.000001 -0.000001 -0.000000 -0.000000 0.000000 -0.000000 0.000000 -0.000000 -12.540135 -13.882421 2.729105 78.234559 -14.846421 7.262907 10.033325 32.725418 19.103669 -12.181332 26.362957 0.708592 0.000002 0.000001 -0.000002 0.000000 0.000000 0.000000 0.000000 -0.000000 0.000000 
11.568093 15.349550 -23.981832 -7.957702 -8.750674 22.911181 -2.920484 -13.353777 -15.410633 -12.792017 10.238547 7.899658 1.757359 11.321578 32.563799 -10.322145 -10.766753 0.314767 6.638151 -4.708940 -25.442874 -1.915214 6.331574 -11.489083 9.727105 0.182427 -54.171862 -1.180187 -29.552272 60.163080 -0.444828 -2.388337 -2.756059 -21.690419 19.090789 -21.180734 8.288608 6.084816 31.445130 0.743255 1.325796 -8.794533 4.820745 -2.377219 -1.388893 -5.416119 2.685230 -13.235884 0.731975 2.914435 1.610499 2.977974 7.627038 1.802734 17.311356 -18.375969 1.275070 -18.307279 -66.474656 -77.613076 -0.209135 -74.368010 45.709040 -10.177306 -40.694804 9.957471 0.000001 -0.000001 -0.000001 -0.000000 0.000000 0.000000 -0.000000 -0.000000 0.000000 -12.683074 -13.373432 2.613249 77.735101 -15.689928 8.216919 9.748592 33.371022 19.048880 -12.068212 26.163860 0.729972 0.000002 0.000001 -0.000002 -0.000000 0.000000 0.000000 -0.000000 0.000000 -0.000000 
11.516817 15.394294 -23.618318 -7.999024 -9.238203 23.093880 -2.437603 -13.578154 -14.957420 -13.150304 11.754485 9.601555 0.185676 8.465416 29.025483 -14.134296 -6.963975 3.695587 12.437926 -14.920627 -29.503763 -1.643776 6.243087 -11.371955 8.604850 1.771773 -54.418109 1.922360 -30.073009 55.943800 0.476128 -1.360999 -2.159070 -17.199513 14.439602 -20.628840 7.685948 6.134229 31.072441 0.936502 0.912119 -8.980313 5.769605 -2.670040 -1.852726 -5.904357 2.739568 -13.097163 0.663105 3.128520 1.184921 2.163461 8.342811 1.602745 16.280435 -17.982746 1.450782 -17.191276 -65.679236 -77.826994 0.032659 -75.526517 45.966757 -7.688488 -40.984568 9.023205 0.000001 -0.000001 -0.000001 0.000000 0.000000 -0.000000 -0.000000 -0.000000 0.000000 -12.862824 -12.606392 2.369221 77.083349 -16.120605 8.913312 9.467999 33.860104 19.638896 -12.607061 27.103243 0.619257 0.000002 0.000001 -0.000002 0.000000 0.000000 -0.000000 0.000000 -0.000000 -0.000000 
11.476366 15.436036 -23.262613 -7.835130 -9.570834 22.967249 -2.608354 -13.883544 -15.290767 -13.025914 11.430027 12.448156 -0.962422 7.803814 25.577502 -17.072839 -2.175293 9.040126 16.247645 -20.082617 -33.308583 -1.495525 6.214690 -11.350017 8.003196 2.318242 -54.073044 4.139966 -30.509813 52.296362 1.196069 0.339440 -1.629851 -11.842598 8.954046 -20.017169 7.791337 6.165089 31.293851 0.953291 0.468568 -9.213799 6.073223 -3.122396 -2.379164 -6.122231 2.637849 -13.016520 0.807561 3.145398 0.638853 1.459465 8.706508 3.435282 15.672259 -17.721306 1.573491 -17.546577 -65.017882 -76.759102 0.187234 -76.913844 45.688236 -5.676301 -40.644407 8.148950 0.000001 -0.000001 -0.000001 0.000000 0.000000 0.000000 -0.000000 -0.000000 0.000000 -13.045593 -12.045997 2.232525 76.571004 -15.959624 9.377082 9.299986 34.226318 19.737580 -12.451029 27.315321 0.666091 0.000002 0.000001 -0.000002 0.000000 0.000000 0.000000 -0.000000 0.000000 0.000000 
11.418423 15.447147 -22.886937 -7.634925 -9.903291 22.785273 -2.538402 -13.672334 -15.711815 -13.414575 11.075577 15.551081 -1.533866 7.322568 21.722687 -20.020211 2.897867 14.684593 21.157731 -26.621668 -36.666072 -1.529884 5.793597 -10.846393 8.468721 2.859310 -54.551534 5.761639 -30.047533 49.382071 2.404602 2.087762 -0.976050 -7.423428 3.887413 -21.346812 7.641878 6.187499 31.024731 1.024459 0.092271 -9.280055 5.727620 -3.442897 -2.275793 -5.660225 2.573206 -13.270155 0.993662 3.050235 0.178577 0.861439 9.099245 4.953255 15.989592 -17.468077 1.408397 -17.792490 -64.420974 -76.253908 -1.643273 -78.237889 46.111903 -6.494009 -39.984712 8.331688 0.000001 -0.000001 -0.000001 -0.000000 0.000000 0.000000 0.000000 0.000000 -0.000000 -12.489686 -11.932585 2.110208 76.054592 -15.552133 9.757682 9.349230 34.551384 19.062351 -11.472502 25.971787 0.872000 0.000002 0.000001 -0.000002 -0.000000 0.000000 0.000000 -0.000000 0.000000 -0.000000 
